<svg xmlns="http://www.w3.org/2000/svg" xml:space="preserve" width="482.234" height="503.202" style="shape-rendering:geometricPrecision;text-rendering:geometricPrecision;image-rendering:optimizeQuality;fill-rule:evenodd;clip-rule:evenodd" viewBox="0 0 586.51 612.02"><path d="M195.51 275.41h-65.17v61.2h65.17v-61.2zm130.34 0h-65.17v61.2h65.17v-61.2zm130.34 0h-65.17v61.2h65.17v-61.2zm65.16-214.2h-32.58V.01H423.6v61.2H162.93V.01H97.76v61.2H65.18C29.01 61.21.34 88.75.34 122.41L.01 550.82c0 33.67 29 61.2 65.17 61.2h456.17c35.84 0 65.17-27.54 65.17-61.2V122.41c0-33.67-29.33-61.2-65.17-61.2zm0 489.61H65.18V214.21h456.17v336.61z" style="fill:#fff;fill-rule:nonzero"/></svg>