<svg xmlns="http://www.w3.org/2000/svg" xmlns:xlink="http://www.w3.org/1999/xlink" xml:space="preserve" width="2507.942" height="2358.134" style="shape-rendering:geometricPrecision;text-rendering:geometricPrecision;image-rendering:optimizeQuality;fill-rule:evenodd;clip-rule:evenodd" viewBox="0 0 8448.69 7944.04"><defs><linearGradient id="id0" x1="788.8" x2="788.8" y1="0" y2="1013.81" gradientUnits="userSpaceOnUse"><stop offset="0" style="stop-opacity:1;stop-color:#9ada42"/><stop offset="1" style="stop-opacity:1;stop-color:#73ae3a"/></linearGradient><linearGradient id="id1" x1="1863.35" x2="1863.35" y1="4948.42" y2="6638.11" gradientUnits="userSpaceOnUse"><stop offset="0" style="stop-opacity:1;stop-color:#9475cf"/><stop offset="1" style="stop-opacity:1;stop-color:#735497"/></linearGradient><linearGradient xlink:href="#id1" id="id2" x1="7901.45" x2="7901.45" y1="2903.79" y2="3410.66" gradientUnits="userSpaceOnUse"/><linearGradient id="id3" x1="2433" x2="5973.58" y1="3084.09" y2="6624.67" gradientUnits="userSpaceOnUse"><stop offset="0" style="stop-opacity:1;stop-color:#9cdc43"/><stop offset="1" style="stop-opacity:1;stop-color:#70ab3a"/></linearGradient><style>.fil15{fill:#297d45;fill-rule:nonzero}.fil11,.fil5,.fil6{fill:#40252e;fill-rule:nonzero}.fil11,.fil5{fill:#82cbde}.fil11{fill:#af9279}.fil2,.fil3,.fil4{fill:#b3b3b3;fill-rule:nonzero}.fil2,.fil4{fill:#e9daae}.fil4{fill:#f0b458}.fil12,.fil13,.fil7{fill:#fff;fill-rule:nonzero}.fil12,.fil13{fill:#c0bfc5;fill-opacity:.219608}.fil12{fill-opacity:.470588}</style></defs><g id="Layer_x0020_1"><g id="_2226712513296"><circle cx="7901.45" cy="3157.23" r="253.45" style="fill:url(#id2);fill-rule:nonzero"/><circle cx="788.8" cy="506.91" r="506.91" style="fill:url(#id0);fill-rule:nonzero"/><path d="m3160.71 7456.25-12.14-198.33 182.8-8.99s1.63.4 3.49-.02l4883.33-241.85 6.23 105.72-4878.26 330.79s-1.83.42-3.49.02l-181.95 12.67z" class="fil2"/><path d="m3331.37 7248.92-182.8 9 165.62-9.74c6.13-.23 11.26.15 17.18.73zM3326.32 7446.52l-165.61 9.74 181.97-12.68c-5.51 1.26-11.04 2.5-16.36 2.94z" class="fil3"/><path d="M2341.39 7504.5 599.11 7605.94l-11.33-198.13 2187.42-128.58-450.38 41.47 785.48-20.07-782.13 84.28 786.29-23.35-782.1 87.76 785.66-24.37z" class="fil4"/><path d="m8310.44 7108.89-6.28-106.91-85.86 5.04 6.28 106.91z" class="fil5"/><path d="m3271.43 7449.42-11.63-198.66-110.28 6.45 11.64 198.67zM599.09 7605.95l-493.39 29.21c-55.41 2.9-102.43-39.02-105.54-93.62-3.11-54.59 38.82-101.61 93.61-105.54l494.21-28.99 11.11 198.95z" class="fil6"/><path d="m599.11 7605.96 825.43-48.48-786.33 12.92 783.43-68.33-786.99 4.94 783.43-68.32-786.77 7.6 782.6-72.01-451.73 11.63-374.4 21.91zM3160.71 7456.27l-825.45 48.47 782.76-79.78-785.66 24.37 782.1-87.75-786.27 23.34 782.11-84.28-785.48 20.08 450.39-41.48 373.56-22.12z" class="fil6"/><path d="m3290.81 7607.22 14.27-198.47 182.32 15.23s1.86.28 3.04.09l4872.15 406.57-7.77 106-4879.25-317.61s-2.36.39-3.75-.56l-181.7-11.71.68.47z" class="fil2"/><path d="m3487.38 7423.94-182.33-15.23 165.56 12.68c6.09.16 11.19 1.71 16.28 3.27l.48-.71zM3456.18 7618.71l-165.56-12.68 181.73 11.72s-10.79.65-16.87.48l.7.48z" class="fil3"/><path d="M2471.94 7545.97 731.42 7416.96l15.45-198.67 2184.86 162.09-452.02-17.85 781.53 83.38-786.3-19.66 782.33 80.86-787.09-17.09 781.63 80.34z" class="fil4"/><path d="m8440.94 7944.04 7.75-106.82-85.79-6.25-7.77 106.81z" class="fil5"/><path d="m3401.99 7615.53 14.68-198.45-110.18-8.17-14.66 198.48zM731.42 7416.96l-493.38-36.75c-55.11-3.82-95.94-51.25-92.11-106.36 3.83-55.11 51.26-95.94 106.37-92.11l493.38 36.74-14.26 198.48zM731.42 7416.99l824.96 61.4-781.3-92.52 785.61 36.72-780.64-99.29 785.41 35.54-780.72-96.23 785.49 32.5-449.52-49.14-373.84-27.68zM3290.81 7607.22l-824.94-61.39 785.94 24.53-781.62-80.34 787.08 17.09-782.33-80.83 786.3 19.63-781.53-83.38 452.02 17.85 373.84 27.65z" class="fil6"/><path d="M4024.58 2269.91c0 482.29-397.9 873.01-887.09 873.01-489.18 0-887.09-390.72-887.09-873.01 0-482.29 397.02-873.01 887.09-873.01 490.07 0 887.09 390.72 887.09 873.01z" class="fil7"/><path d="M2680.03 5793.71c0 466.05-365.73 844.39-816.25 844.39-450.53 0-817.11-378.34-817.11-844.39 0-466.07 365.73-845.29 817.11-845.29s816.25 378.34 816.25 845.29z" style="fill:url(#id1);fill-rule:nonzero"/><path d="M6152.22 6803.31c1069.26-1069.28 1069.26-2802.91 0-3872.19-1069.28-1069.27-2802.91-1069.27-3872.19 0-1069.27 1069.27-1069.27 2802.9 0 3872.19 1069.27 1069.26 2802.9 1069.28 3872.19 0z" style="fill:url(#id3);fill-rule:nonzero"/><path d="M6464.61 4867.22c0 191.41-23.82 376.66-68.83 553.96-22.04 85.55-48.49 169.36-79.38 250.52-14.99 39.68-31.74 78.52-48.52 116.42-15.86 35.28-33.51 70.57-51.14 104.99-34.41 66.15-71.44 130.56-112.02 192.28-82.94 128.81-179.08 247.88-285.8 357.25-407.53 415.47-975.6 672.19-1602.79 672.19-1242 0-2248.48-1007.39-2248.48-2248.49 0-1241.12 1006.49-2248.48 2248.48-2248.48 1242.01 0 2248.49 1006.49 2248.49 2248.48v.88z" style="fill:#34995d;fill-rule:nonzero"/><path d="M4287.58 3517.58c-27.34 12.35-51.17 31.76-68.81 56.45-6.17 8.82-12.35 18.52-16.75 29.11L3150.55 5423.8c-10.59 12.35-18.53 26.46-23.82 41.47-7.94 19.4-12.35 40.55-12.35 63.51 0 88.19 67.03 161.41 154.36 170.23h-142.91c-86.45-8.82-153.48-82.04-153.48-170.23 0-22.05 4.41-44.11 12.35-63.51 5.29-15.01 14.11-29.12 23.82-41.47L4059.1 3603.14c4.41-10.59 10.58-19.4 16.76-29.11 30.87-44.11 82.03-72.33 139.37-72.33 25.58 0 49.4 5.29 71.45 15.88h.88z" class="fil11"/><path d="M3514.85 5465.28c0 128.79-104.97 233.77-233.76 233.77s-233.76-104.98-233.76-233.77c0-128.79 104.97-233.76 233.76-233.76s233.76 104.97 233.76 233.76z" class="fil7"/><path d="M3513.96 5489.98c-12.35 117.31-112.02 208.17-231.99 208.17-128.79 0-234.64-104.96-234.64-234.64 0-119.96 91.74-219.64 209.05-231.99-51.15 33.52-84.68 90.85-84.68 156.13 0 103.2 83.81 187.01 187.01 187.01 65.28 0 122.62-33.52 155.25-84.68z" class="fil12"/><path d="M3982.36 5465.28c0 128.79-104.98 233.77-233.77 233.77-128.79 0-233.76-104.98-233.76-233.77 0-128.79 104.97-233.76 233.76-233.76s233.77 104.97 233.77 233.76z" class="fil7"/><path d="M3982.36 5469.67c-2.65 127.03-106.73 229.35-233.77 229.35-127.02 0-231.99-102.32-233.76-229.35 55.57 67.93 139.37 112.02 233.76 112.02 94.39 0 179.07-43.2 233.77-112.02z" class="fil12"/><path d="M4450.76 5465.28c0 128.79-104.97 233.77-233.76 233.77s-233.76-104.98-233.76-233.77c0-128.79 104.97-233.76 233.76-233.76s233.76 104.97 233.76 233.76z" class="fil7"/><path d="M4449.87 5469.67c-2.65 127.03-105.85 229.35-233.76 229.35S3985 5596.7 3982.35 5469.67c54.69 67.93 139.37 112.02 233.76 112.02 94.39 0 179.07-43.2 233.76-112.02z" class="fil13"/><path d="M4918.27 5465.28c0 128.79-104.96 233.77-233.74 233.77-128.79 0-233.76-104.98-233.76-233.77 0-128.79 104.97-233.76 233.76-233.76s233.74 104.97 233.74 233.76z" class="fil7"/><path d="M4918.27 5469.67c-1.75 127.03-105.83 229.35-233.74 229.35-127.91 0-231.99-102.32-233.76-229.35 54.69 67.93 139.37 112.02 233.76 112.02 94.39 0 179.06-43.2 233.74-112.02z" class="fil12"/><path d="M5385.78 5465.28c0 128.79-104.96 233.77-233.75 233.77-128.81 0-233.77-104.98-233.77-233.77 0-128.79 104.96-233.76 233.77-233.76 128.79 0 233.75 104.97 233.75 233.76z" class="fil7"/><path d="M5385.78 5469.67c-2.65 127.03-105.83 229.35-233.75 229.35-127.9 0-231.99-102.32-233.77-229.35 54.69 67.93 139.37 112.02 233.77 112.02 94.37 0 179.05-43.2 233.75-112.02z" class="fil12"/><path d="M3748.6 5050.68c0 128.79-104.97 233.76-233.76 233.76s-233.76-104.97-233.76-233.76c0-128.78 104.97-233.76 233.76-233.76s233.76 104.98 233.76 233.76zM4217 5050.68c0 128.79-104.98 233.76-233.77 233.76-128.78 0-233.76-104.97-233.76-233.76 0-128.78 104.98-233.76 233.76-233.76 128.79 0 233.77 104.98 233.77 233.76z" class="fil7"/><path d="M4216.12 5054.21c-2.65 127.9-105.86 230.23-233.76 230.23-127.92 0-232-102.33-233.77-230.23 55.58 68.81 139.38 112.03 233.77 112.03 94.38 0 178.19-43.22 233.76-112.03z" class="fil13"/><path d="M4684.51 5050.68c0 128.79-104.97 233.76-233.76 233.76s-233.76-104.97-233.76-233.76c0-128.78 104.97-233.76 233.76-233.76s233.76 104.98 233.76 233.76z" class="fil7"/><path d="M4684.51 5054.21c-2.64 127.9-105.85 230.23-233.76 230.23-127.9 0-231.11-102.33-233.76-230.23 55.57 68.81 139.37 112.03 233.76 112.03 94.39 0 179.07-43.22 233.76-112.03z" class="fil12"/><path d="M5152.03 5050.68c0 128.79-104.98 233.76-233.77 233.76-128.78 0-233.76-104.97-233.76-233.76 0-128.78 104.98-233.76 233.76-233.76 128.79 0 233.77 104.98 233.77 233.76z" class="fil7"/><path d="M5152.03 5054.21c-2.64 127.9-105.85 230.23-233.77 230.23-127.9 0-231.99-102.33-233.76-230.23 54.69 68.81 139.36 112.03 233.76 112.03 94.4 0 179.08-43.22 233.77-112.03z" class="fil12"/><path d="M3982.36 4635.22c0 129.67-104.98 234.64-233.77 234.64-128.79 0-233.76-104.97-233.76-234.64s104.97-233.76 233.76-233.76 233.77 104.97 233.77 233.76zM4450.76 4635.22c0 129.67-104.97 234.64-233.76 234.64s-233.76-104.97-233.76-234.64 104.97-233.76 233.76-233.76 233.76 104.97 233.76 233.76z" class="fil7"/><path d="M4450.76 4639.63c-2.65 127.02-105.85 229.35-233.76 229.35s-231.99-102.33-233.76-229.35c55.57 68.8 139.37 112.02 233.76 112.02 94.39 0 179.07-43.22 233.76-112.02z" class="fil13"/><path d="M4918.27 4635.22c0 129.67-104.96 234.64-233.74 234.64-128.79 0-233.76-104.97-233.76-234.64s104.97-233.76 233.76-233.76 233.74 104.97 233.74 233.76z" class="fil7"/><path d="M4918.27 4639.63c-2.65 127.02-105.83 229.35-233.74 229.35-127.91 0-231.12-102.33-233.76-229.35 54.69 68.8 139.37 112.02 233.76 112.02 94.39 0 179.06-43.22 233.74-112.02z" class="fil12"/><path d="M4216.99 4219.75c0 128.79-104.97 233.76-234.63 233.76-129.67 0-233.77-104.97-233.77-233.76s104.98-233.76 233.77-233.76c128.78 0 234.63 104.97 234.63 233.76zM4684.51 4219.75c0 128.79-104.97 233.76-233.76 233.76s-233.76-104.97-233.76-233.76 104.97-233.76 233.76-233.76 233.76 104.97 233.76 233.76z" class="fil7"/><path d="M4684.51 4224.16c-2.64 127.02-105.85 229.34-233.76 229.34-127.9 0-231.11-102.32-233.76-229.34 55.57 67.92 139.37 112.02 233.76 112.02 94.39 0 179.07-43.22 233.76-112.02z" class="fil13"/><path d="M4450.76 3804.27c0 129.66-104.97 233.76-233.76 233.76s-234.64-104.97-234.64-233.76 104.97-233.76 234.64-233.76 233.76 104.97 233.76 233.76z" class="fil7"/><path d="m5694.51 5587.89-510.74-884.75c-83.81-144.67-220.53-381.95-305.21-527.5l-509.85-884.74c-23.81-40.57-51.15-69.68-81.15-88.21-22.94-14.11-47.64-21.17-71.45-21.17-54.69 0-110.27 36.17-152.61 108.5l-509.85 884.74c-84.68 145.55-220.53 382.83-305.21 527.5l-510.74 884.73c-83.8 145.57-15 263.76 152.6 263.76h2650.72c167.58 0 236.42-119.09 152.61-263.76l.87.9zm-407.52 112.02H3126.71c-86.45-8.81-153.48-82.03-153.48-170.25 0-22.05 4.41-44.11 12.35-63.51 5.29-14.98 14.11-29.09 23.82-41.45l1050.58-1820.66c4.41-10.59 10.58-19.4 16.75-29.11 30.88-44.11 82.04-72.34 139.38-72.34 25.58 0 49.4 5.29 71.45 15.88 26.46 11.46 49.4 30.87 67.03 54.69 7.94 10.58 14.11 22.05 19.4 34.4l1054.13 1825.95s1.75 3.54 2.65 4.42l7.94 14.11c12.34 22.92 18.5 49.39 18.5 77.61 0 88.23-67.9 161.44-154.35 170.25h-17.66 1.78z" style="fill:#ebc7a4;fill-rule:nonzero"/><path d="M5684.83 5851.62h-142.92c167.62 0 236.42-119.06 152.61-263.73l-510.74-884.75c-83.78-144.66-220.53-381.95-305.21-527.5l-509.84-884.74c-23.82-40.57-51.17-69.68-81.16-88.21-22.94-14.11-47.63-21.17-71.45-21.17h142.9c54.69 0 110.26 36.17 152.6 108.5l509.86 884.74c83.81 145.55 220.54 382.84 305.22 527.5l510.74 884.73c83.78 145.57 14.97 263.76-152.61 263.76v.87z" class="fil11"/><path d="M3746.84 5076.27c-12.35 117.31-112.02 208.17-231.99 208.17-128.79 0-233.76-104.97-233.76-234.63 0-120.85 91.74-219.64 208.18-232-51.16 33.53-84.68 90.86-84.68 156.13 0 103.21 83.8 186.13 187 186.13 65.28 0 122.62-33.52 155.25-83.8zM3981.47 4659.92c-12.35 117.31-112.02 208.17-231.99 208.17-128.79 0-234.64-104.97-234.64-234.64 0-119.96 91.74-219.64 209.06-231.99-51.17 33.52-84.68 90.85-84.68 156.13 0 103.2 83.8 187.01 187 187.01 65.28 0 122.61-33.52 155.25-83.81v-.87z" class="fil13"/><path d="M4216.12 4244.45c-12.36 117.33-112.04 208.18-232 208.18-128.78 0-234.64-104.97-234.64-234.64 0-119.96 91.74-219.64 209.06-231.99-51.16 32.63-84.68 90.85-84.68 156.13 0 103.2 83.8 187 187.01 187 65.27 0 122.6-33.52 156.13-83.8l-.88-.88z" class="fil12"/><path d="M4448.99 3829.84c-12.35 117.33-112.02 208.18-231.99 208.18-129.67 0-234.64-104.97-234.64-234.64 0-119.96 91.74-219.64 209.05-232-51.16 33.53-84.68 90.86-84.68 156.13 0 103.21 83.81 187.01 187.01 187.01 65.28 0 122.61-33.52 156.13-84.68h-.88z" class="fil13"/><path d="M6438.14 5207.7c-10.59 72.34-25.58 143.79-43.23 214.35-22.04 85.55-47.62 169.36-79.38 250.52-15.01 38.81-31.77 78.52-48.52 116.45-15.88 36.16-33.51 70.55-51.17 104.96-34.39 66.15-70.55 129.68-112.03 192.28-82.03 128.82-179.05 248.79-285.77 357.27-407.56 415.49-975.63 673.05-1602.8 673.05-55.57 0-111.14-1.78-165.83-7.07l-1296.7-1296.7c32.63 24.7 78.51 38.81 136.73 38.81h2793.61c167.62 0 235.54-119.06 152.61-264.6l-509.86-884.77c-83.78-143.77-220.5-381.95-305.18-526.6l-509.86-884.76c-7.94-15-17.65-27.34-26.47-38.82l1953.87 1953.86v1.77z" class="fil15"/><path d="M3747.72 5699.91h-467.51c15.87 0 30.87-1.77 44.98-5.29 14.11-2.65 27.35-7.07 40.58-11.46 11.46-5.29 22.93-9.72 33.52-16.75 2.65-1.78 5.29-2.65 7.06-4.43 8.82-6.16 18.52-12.36 26.46-20.3 1.77 0 3.53-2.62 4.42-3.52 8.81-7.04 15.87-14.99 22.93-23.82 1.77-1.75 3.53-4.4 5.3-7.05 7.94-8.81 14.11-20.31 20.29-30.87 2.65-4.42 5.29-7.94 7.06-13.23 1.76-3.55 3.52-7.07 5.29-10.59 4.41-9.72 7.06-20.31 9.71-30.87 2.64-9.72 5.29-21.18 6.17-31.76v-15.02c.88 7.07.88 12.37 1.77 18.53 1.76 13.24 4.41 25.6 7.93 37.93 6.17 22.05 15 41.46 27.35 59.99 5.29 7.94 10.58 16.75 17.64 23.82 7.06 7.94 15 16.76 22.94 23.83 7.94 7.04 16.75 13.21 25.58 20.28 7.06 6.16 16.76 10.58 24.7 14.98 22.05 10.59 46.75 18.53 72.33 22.05 9.7 1.78 21.17 2.67 31.75 2.67l1.77.87zM4216.11 5699.91H3748.6c8.82 0 19.4 0 27.34-1.77 8.82-.87 18.53-2.65 26.46-5.3 7.94-1.75 16.76-4.4 24.7-7.94 16.76-6.16 32.63-13.23 46.75-22.93 15-9.71 28.23-20.3 40.58-32.63 7.06-6.17 12.35-12.37 16.75-19.4 5.29-5.3 7.94-9.72 12.36-15.88 13.23-20.28 23.81-42.33 29.98-67.06 2.65-8.81 4.42-17.63 5.3-26.45.88-7.94 1.76-16.75 2.64-25.6 0 8.85 1.77 17.66 2.65 25.6 1.77 8.82 3.52 18.53 6.17 26.45 7.06 23.82 16.76 46.78 29.99 67.06 4.41 6.16 7.06 10.58 12.35 15.88 5.29 7.04 9.71 12.34 15.88 18.53 5.29 6.16 11.46 11.46 17.64 16.75 33.53 27.34 74.1 45.87 119.09 51.14 9.7 1.78 20.29 2.67 30.87 2.67v.87zM4683.63 5699.91h-467.51c10.58 0 21.17 0 30.87-2.64 44.99-5.3 85.57-23.83 119.09-51.17 6.17-5.29 12.35-10.59 17.64-16.75 6.17-6.17 11.46-11.46 15.88-18.53 5.29-5.3 7.94-9.69 12.35-15.88 13.23-20.28 23.82-42.33 29.99-67.02 2.64-8.82 4.41-17.66 5.29-26.48.88-7.94 1.77-16.75 2.65-25.57 0 8.81 0 17.63 2.65 25.57 1.76 8.82 3.52 18.53 6.16 26.48 9.71 39.68 31.76 74.96 59.99 103.21 8.82 9.69 21.17 19.39 31.76 26.44 6.17 4.42 11.46 7.94 17.64 10.59 7.06 3.54 12.35 7.07 19.4 8.81 7.94 3.54 15 7.07 22.94 8.85 7.06 2.64 15.88 5.29 23.82 7.04 7.06 2.65 15.87 3.55 23.81 4.43 8.82 0 17.65 1.77 25.59 1.77v.87zM5151.16 5699.91h-467.52c10.58 0 21.17 0 30.87-2.64 26.47-3.52 51.17-10.59 74.11-22.05 7.94-4.43 15.85-8.81 23.79-14.11 8.85-6.2 17.66-12.36 25.61-20.3 7.94-7.94 15.88-14.99 22.92-23.83 7.07-7.04 12.37-14.98 17.66-23.79 9.69-14.11 17.63-29.99 22.93-47.65 2.65-7.94 5.29-14.99 6.16-22.93 4.43-15.01 7.07-30.87 7.94-46.75 0 7.03 0 12.34 1.78 18.53v2.65c2.65 13.21 5.3 26.44 9.69 39.68 4.43 15.01 9.72 29.11 17.66 41.45 7.05 13.24 15.89 25.6 25.58 37.93 3.54 6.17 8.81 11.46 15.01 16.76 9.69 10.58 22.05 20.3 35.28 28.24 37.03 25.58 82.03 39.68 129.66 39.68l.89-.87z" class="fil15"/><path d="M5457.25 5529.68c0 88.2-67.93 161.42-153.51 170.23-5.29.87-11.46.87-17.63.87-6.16 0-11.46 0-17.66-.87h-116.42c23.83 0 47.62-4.42 68.8-9.72 11.46-4.39 23.82-8.81 34.41-14.1 31.74-15.88 58.21-37.03 79.39-65.28 8.81-9.69 16.75-21.15 22.93-33.52 7.07-11.46 12.36-24.69 16.75-37.93 1.77-3.51 2.65-7.03 3.54-10.58 3.52-9.7 5.27-21.15 7.05-31.74v-2.65c0-6.19 0-12.37 1.77-18.53v-9.72c0-128.78-104.08-233.74-233.77-233.74-129.65 0-234.64 104.09-234.64 233.74 0-128.78-104.96-233.74-234.63-233.74-129.67 0-233.77 104.09-233.77 233.74 0-128.78-104.97-233.74-233.76-233.74s-234.64 104.09-234.64 233.74c0-128.78-104.08-233.74-233.76-233.74-129.66 0-234.64 104.09-234.64 233.74 0-128.78-104.97-233.74-233.76-233.74h-18.52l44.11-76.74c37.92 75.86 116.43 127.9 207.29 127.9 22.94 0 44.11-3.53 65.28-8.82 7.06-1.77 13.23-4.41 20.29-7.06 4.42-1.77 7.06-2.64 10.59-4.41 6.17-2.65 10.58-5.3 16.76-7.94 33.52-18.53 61.74-44.11 82.91-74.98 4.41-7.06 8.82-12.35 11.46-19.4 3.53-5.29 6.17-10.58 7.94-15.88 0-2.64 1.77-5.29 2.65-7.06 3.52-7.06 6.17-14.11 7.06-21.17 1.77-7.06 3.52-13.23 5.29-21.17 2.65-12.35 4.41-25.58 5.29-38.81 0 7.06 0 12.35 1.77 19.4 0 2.65 0 5.29.88 7.06 0 8.82 3.52 18.52 6.17 26.46 0 4.42 1.77 7.94 3.52 12.36 4.42 13.23 9.71 26.46 16.76 38.81 6.17 12.35 13.23 22.94 22.94 33.53 41.46 54.69 108.5 89.09 182.59 89.09 96.15 0 178.19-57.34 214.35-140.25 3.53-7.06 6.17-14.11 8.82-21.17 2.64-7.94 5.29-15 6.17-22.05 1.77-7.94 3.53-15 4.41-22.94 0-7.06 1.77-12.35 1.77-19.4 0 7.06 0 12.35 1.77 19.4 1.77 18.52 6.17 35.28 12.35 52.05 1.77 5.29 3.53 9.7 5.29 14.99 36.17 82.04 118.21 140.26 214.35 140.26 96.15 0 178.19-57.34 214.35-140.26 3.53-7.06 6.17-14.11 7.06-21.17 3.53-7.94 5.29-14.11 7.06-21.17v-4.41c2.65-11.46 4.41-22.94 5.29-35.28v22.06c0 8.82 3.53 18.52 6.17 26.46 0 4.41 1.77 7.94 3.53 12.35 4.41 13.24 9.7 26.47 16.76 38.82 6.17 12.35 13.23 22.94 22.93 33.52 19.41 25.59 44.11 46.76 73.23 61.75 13.23 7.06 27.34 13.23 41.45 17.64 22.05 7.06 44.11 9.71 68.8 9.71 24.7 0 46.75-3.53 67.93-9.71 14.1-4.41 28.22-9.7 41.46-17.64 29.11-15 53.81-36.17 73.22-61.75 8.81-9.7 16.75-21.17 22.92-33.52 7.08-11.46 12.37-24.7 16.79-38.82 1.75-4.41 2.65-7.94 3.52-12.35 2.65-8.82 5.3-17.64 6.17-26.46v-7.06c0-7.06 1.77-12.35 1.77-19.4v-7.94c0-128.79-104.98-233.76-234.64-233.76-129.68 0-227.58 98.79-233.76 221.4-7.06-123.49-109.39-221.4-234.64-221.4-125.26 0-233.76 104.08-233.76 233.76 0-128.79-104.09-233.76-234.65-233.76-130.54 0-233.76 104.08-233.76 233.76 0-128.79-104.97-233.76-234.64-233.76h-11.46l40.57-69.68c3.53 7.06 7.06 12.35 11.47 18.52 7.94 12.35 18.52 23.82 28.23 35.28 41.46 42.34 100.56 69.68 165.83 69.68 15 0 29.99-1.77 44.11-5.29 15-1.77 28.23-5.3 41.46-11.46 13.24-5.3 25.59-11.47 37.05-19.41 7.06-2.64 12.35-7.06 17.65-11.46 6.17-3.53 10.58-7.06 15.87-13.23 10.59-8.82 20.3-19.41 28.23-30.88 5.3-4.41 8.82-10.58 12.36-17.64 14.99-22.94 25.58-49.4 31.75-77.63 2.65-11.46 4.42-23.81 5.29-35.28v15.88c0 1.77 0 2.65.88 3.53 0 9.7 2.65 20.29 6.17 29.1 0 4.42 1.77 7.95 3.53 12.36 4.41 13.23 9.71 25.58 16.76 38.81 6.17 11.47 13.23 22.94 22.93 33.53 0 1.76 2.65 4.41 4.42 6.17 5.29 6.17 9.7 10.58 15 15.88 15.88 15.87 34.4 29.1 53.8 39.69 13.23 7.94 27.34 13.23 41.46 17.65 22.05 7.05 44.11 9.7 68.81 9.7 24.69 0 47.63-3.52 69.68-9.7 11.46-4.42 22.94-7.95 34.4-14.12 22.05-10.58 42.34-25.58 59.99-43.21 5.29-5.3 9.7-9.71 15-15.88 1.76-1.77 3.52-4.42 4.41-6.17 9.7-9.71 16.75-22.05 22.94-33.53 7.06-12.35 12.35-25.58 16.75-38.81 1.77-4.41 2.65-7.94 3.53-12.36 3.52-8.81 5.29-19.4 5.29-29.1.88-.88.88-1.77.88-3.53 0-5.29 0-12.35 1.77-18.52 0 6.17 0 12.35 1.76 18.52v3.53c.88 9.7 2.65 20.29 6.17 29.1 0 4.42 1.77 7.95 3.53 12.36 4.41 13.23 9.71 25.58 16.76 38.81 6.17 11.47 13.23 22.94 22.93 33.53 0 1.76 2.65 4.41 4.42 6.17 4.41 6.17 9.7 10.58 15 15.88 41.46 41.46 98.79 67.92 163.19 67.92 23.81 0 47.63-3.52 69.68-9.71 14.11-4.41 28.23-9.7 41.47-17.64 20.28-10.59 37.9-23.82 53.79-39.7 6.2-5.29 10.59-9.7 15.01-15.87 14.11-16.76 26.44-36.17 35.28-56.45 3.52-7.06 6.17-14.11 7.94-21.17 2.65-7.07 5.3-15 6.17-22.05 1.77-7.06 3.51-15 4.42-22.94 0-5.29 0-12.35 1.75-18.52v-9.71a233.03 233.03 0 0 0-233.76-233.76c-129.66 0-234.64 104.08-234.64 233.76 0-129.67-104.97-233.76-233.76-233.76s-227.58 98.79-233.76 221.41c-7.06-123.5-109.37-221.41-234.64-221.41h-7.06l37.93-65.28c39.69 69.68 115.56 117.31 202.88 117.31 15 0 29.99-1.76 44.99-5.29 21.17-3.52 41.46-9.7 59.99-20.29 7.06-3.52 12.35-7.06 18.52-10.58 7.06-2.65 12.35-7.06 17.64-11.47 6.18-3.52 10.59-7.06 15.88-13.23 10.59-8.82 20.29-19.4 28.23-30.88 5.29-5.29 8.82-10.58 12.35-17.64 7.94-11.47 14.12-24.7 21.18-38.82 3.52-9.7 7.06-19.4 7.93-29.11 3.53-10.58 5.3-22.04 7.07-32.63V4233v15c1.76 15.87 5.29 31.75 9.7 45.86 2.65 7.06 5.29 14.11 7.94 21.17 6.17 13.23 13.23 26.46 22.05 37.93 7.94 12.35 17.64 23.82 28.23 34.4 41.46 41.46 99.68 67.92 164.07 67.92 64.39 0 121.73-25.58 164.07-67.92 10.58-9.71 20.29-22.05 28.23-34.4 7.94-11.47 15.87-24.7 22.05-37.93 3.52-7.06 6.17-14.11 7.94-21.17 5.29-14.11 7.93-29.99 9.7-45.86 0-7.06 1.77-12.36 1.77-19.41v-7.93c0-128.79-104.97-234.65-234.64-234.65s-227.58 98.81-233.76 222.29c-7.06-123.49-109.39-222.29-234.64-222.29l34.4-59.98c40.57 68.8 114.68 113.79 200.24 113.79 32.63 0 63.51-7.06 91.74-18.53 7.06-3.52 13.23-7.06 19.4-9.7 33.52-18.52 61.75-44.11 82.04-74.98 4.41-7.06 8.81-12.35 11.46-19.4 3.53-5.29 6.17-10.58 7.94-15.88 0-2.64 1.77-5.29 2.65-7.06 3.52-7.06 6.17-14.11 7.06-21.17 1.76-7.06 3.52-13.23 5.29-21.17 3.52-15.87 5.29-30.87 5.29-47.63 0-127.91-100.56-231.11-227.58-234.64 16.76-22.94 38.82-40.57 65.28-52.05 26.46 11.47 49.4 29.99 67.03 53.81 8.82 9.71 14.12 22.05 20.3 34.4l1054.12 1825.95s2.65 3.52 2.65 5.3l8.81 13.24c12.34 22.92 18.53 50.26 18.53 78.49l2.65.89z" class="fil15"/></g></g></svg>