<svg xmlns="http://www.w3.org/2000/svg" xml:space="preserve" width="8627.03" height="2490.365" style="shape-rendering:geometricPrecision;text-rendering:geometricPrecision;image-rendering:optimizeQuality;fill-rule:evenodd;clip-rule:evenodd" viewBox="0 0 4566421.48 1318186.96"><defs><linearGradient id="id1" x1="247448.64" x2="247448.64" y1="292432.3" y2="944768.48" gradientUnits="userSpaceOnUse"><stop offset="0" style="stop-opacity:1;stop-color:#9678d3"/><stop offset="1" style="stop-opacity:1;stop-color:#6f5091"/></linearGradient><linearGradient id="id2" x1="517385" x2="517385" y1="0" y2="877288.69" gradientUnits="userSpaceOnUse"><stop offset="0" style="stop-opacity:1;stop-color:#a0e044"/><stop offset="1" style="stop-opacity:1;stop-color:#6ba539"/></linearGradient><clipPath id="id0"><path d="M0 944768.48h4566421.48V0H0v944768.48z"/></clipPath><style>.fil2{fill:#6f5091;fill-rule:nonzero}</style></defs><g id="Layer_x0020_1"><g id="_2226709675504"><g style="clip-path:url(#id0)"><g id="_2226709674064"><path d="m624968.48 389209.93-435103.45-244124.5L438793.09-8.6l439345.84 246564.59V740892.3L624968.48 882900.07z" style="fill:url(#id2)"/><path d="M321100.96 580494.76 0 400330.46l183692.69-107064.93 324204.24 181941.4v306.09l25.41-8.6v364486.37L321100.96 944777.08z" style="fill:url(#id1)"/><path d="M1418547.21 332825.06c-1751.29 2839.6-3698.24 5007.61-5832.24 6521.04-1938.55 1317.77-4370.03 1980.96-7286.25 1980.96-3298.73 0-7184.02-1607.05-11656.08-4812.15-4463.46-3213.7-10091.84-6708.09-16893.35-10491.35-6606.06-3961.91-14665.93-7549.72-24188.01-10763.43-9326.62-3213.9-20685.22-4820.76-34084.19-4820.76-12633.96 0-23796.9 1700.48-33514.63 5101.24-9522.28 3213.7-17573.55 7651.75-24179.6 13322.55-6410.4 5662.19-11264.97 12370.28-14572.3 20115.46-3298.73 7558.33-4956.59 15771.24-4956.59 24655.74 0 11332.99 2822.59 20778.65 8450.98 28336.97 5823.84 7362.67 13407.57 13696.45 22734.2 18984.74 9513.68 5288.09 20192.08 9913.19 32052.22 13883.71 12038.79 3774.86 24281.43 7745.18 36702.93 11902.55 12633.76 4148.97 24868 8876.1 36719.73 14164.39 12047.19 5101.04 22725.6 11622.07 32052.22 19554.3 9522.28 7932.43 17089.01 17658.57 22725.8 29187.21 5823.84 11520.04 8739.86 25692.83 8739.86 42501.16 0 17760.6-3111.68 34475.3-9326.62 50161.32-6206.35 15482.16-15345.92 28991.56-27384.71 40520.2-11851.54 11520.24-26517.46 20591.79-43997.38 27197.65-17284.46 6614.66-37009.02 9921.79-59156.45 9921.79-27189.25 0-51861.79-4726.93-74000.83-14172.59-22147.63-9632.71-41089.76-22572.75-56818.39-38819.92l16315.19-26066.94c1555.84-2082.99 3400.76-3774.86 5534.76-5101.04 2338.06-1513.43 4863.17-2270.04 7575.13-2270.04 2525.11 0 5339.3 1045.69 8450.98 3120.08 3298.73 1887.53 6997.17 4344.62 11069.52 7371.27 4089.35 3018.05 8748.46 6325.38 13985.74 9913.19 5254.08 3587.81 11179.95 6895.14 17777.4 9921.79 6801.71 3018.25 14478.87 5568.77 23023.28 7651.75 8536 1887.33 18151.71 2831.2 28838.52 2831.2 13407.57 0 25352.73-1793.9 35844.29-5390.32 10491.35-3587.81 19324.84-8595.42 26508.86-15014.43 7388.28-6606.06 13016.46-14453.27 16901.96-23516.42 3885.29-9071.55 5832.24-19171.8 5832.24-30317.73 0-12285.26-2916.02-22292.07-8748.46-30037.45-5628.18-7940.63-13109.89-14546.69-22436.51-19843.38-9318.22-5288.29-20005.03-9726.34-32043.82-13314.15-12047.19-3774.86-24281.43-7558.13-36711.33-11332.99-12429.9-3970.52-24672.54-8501.99-36719.93-13603.03-12038.59-5101.24-22725.6-11715.7-32052.22-19835.18-9318.02-8127.69-16893.35-18228.13-22725.6-30317.73-5628.38-12285.26-8442.58-27393.31-8442.58-45340.96 0-14359.64 2814.19-28243.35 8442.58-41650.92 5832.24-13415.98 14181.19-25318.73 25063.65-35708.05 11069.52-10389.32 24562.11-18704.26 40494.6-24936.22 16128.34-6231.95 34577.53-9352.03 55364.58-9352.03 23303.96 0 44482.12 3587.81 63518.08 10771.83 19231.21 7175.62 36133.17 17565.14 50696.87 31168.17l-13688.05 26066.94zM1595098.29 523531.93v151878.34h-56240.23V269358.2h123252.49c26415.43 0 49345.29 3018.05 68763.75 9062.95 19622.32 5857.85 35844.09 14266.21 48664.9 25216.7 12821.01 10959.08 22343.09 24188.01 28549.63 39669.96 6410.4 15490.56 9615.51 32775.02 9615.51 51861.79 0 18891.32-3392.15 36175.78-10193.67 51853.39-6793.11 15677.61-16799.93 29187.01-30011.85 40520.2-13016.46 11332.99-29229.63 20217.49-48665.1 26636.5-19231.41 6231.95-41463.87 9352.23-66723.18 9352.23h-67012.26zm0-43640.48h67012.26c16128.14 0 30300.93-2074.38 42543.77-6231.95 12429.7-4157.37 22819.02-9921.79 31176.57-17284.46 8552.81-7558.13 14963.41-16527.65 19231.21-26916.97 4276.6-10389.52 6410.6-21824.54 6410.6-34288.45 0-25879.88-8255.52-46097.37-24766.17-60644.27-16315.19-14546.69-41183.39-21815.94-74595.99-21815.94h-67012.26v167182.05zM2292120.65 472528.78c0 30411.36-4947.99 58374.23-14869.78 83871.6-9896.18 25318.73-23890.52 47134.66-41957.01 65456.22-18058.08 18330.36-39823.01 32587.97-65260.97 42790.24-25259.11 10015.42-53230.58 15023.03-83922.42 15023.03-30692.04 0-58663.31-5007.61-83914.22-15023.03-25250.71-10202.27-46913.6-24459.88-64971.68-42790.24-18066.68-18321.56-32052.22-40137.5-41965.61-65456.22-9904.59-25497.38-14861.38-53460.24-14861.38-83871.6 0-30419.96 4956.79-58280.8 14861.38-83599.53 9913.39-25497.18 23898.93-47415.34 41965.61-65736.9 18058.08-18508.81 39720.98-32868.45 64971.68-43070.72 25250.91-10202.47 53222.18-15303.51 83914.22-15303.51 30691.84 0 58663.31 5101.04 83922.42 15303.51 25437.96 10202.27 47202.88 24561.91 65260.97 43070.72 18066.48 18321.56 32060.82 40239.72 41957.01 65736.9 9921.79 25318.73 14869.78 53179.57 14869.78 83599.53zm-57991.52 0c0-24936.22-3502.79-47321.72-10491.55-67156.7-6996.97-19843.58-16901.76-36558.29-29722.76-50161.52-12812.41-13790.08-28353.78-24366.46-46615.92-31737.73-18253.74-7362.67-38649.88-11052.51-61188.42-11052.51-22334.69 0-42637.2 3689.84-60899.34 11052.51-18253.74 7371.27-33897.34 17947.65-46905.2 31737.73-12821.01 13603.23-22734.2 30317.93-29722.76 50161.52-6988.57 19834.98-10491.35 42220.48-10491.35 67156.7 0 24936.22 3502.79 47321.72 10491.35 67156.7 6988.57 19647.93 16901.76 36362.83 29722.76 50152.91 13007.86 13603.03 28651.46 24085.98 46905.2 31457.25 18262.14 7175.62 38564.65 10763.43 60899.34 10763.43 22538.54 0 42934.68-3587.81 61188.42-10763.43 18262.14-7371.27 33803.51-17854.22 46615.92-31457.25 12821.01-13790.08 22725.8-30504.98 29722.76-50152.91 6988.77-19834.98 10491.55-42220.48 10491.55-67156.7zM2446702.75 505966.79v169443.48h-56240.23V269358.2h118006.81c26415.63 0 49243.26 2643.94 68474.67 7932.23 19231.21 5092.63 35070.47 12557.33 47491.77 22385.5 12642.36 9819.76 21951.98 21722.51 27979.87 35699.65 6010.89 13790.08 9020.54 29280.64 9020.54 46471.68 0 14359.64-2312.65 27775.82-6997.17 40239.52-4650.51 12472.31-11452.02 23711.87-20379.14 33718.69-8748.46 9828.17-19528.9 18330.16-32349.9 25505.78-12616.75 6988.57-26993.6 12183.23-43121.74 15583.99 7379.68 4531.68 13611.63 10295.9 18653.25 17284.46l121781.67 161230.57h-50093.3c-10304.5 0-17879.63-3868.29-22742.8-11613.47l-108382.5-145085.63c-3307.33-4531.48-6903.54-7745.18-10797.44-9632.51-3689.84-2074.58-9513.68-3111.88-17471.52-3111.88h-42832.85zm0-39959.05h59454.13c16306.59 0 30683.43-1887.33 43121.74-5670.8 12616.95-3961.91 23099.7-9445.66 31465.66-16434.22 8527.4-7175.62 14938-15677.61 19214.41-25497.18 4276.4-9828.37 6410.4-20685.22 6410.4-32587.97 0-24179.4-8144.89-42407.73-24477.09-54692.99-16306.59-12276.65-40783.68-18415.18-73422.66-18415.18h-61766.58v153298.34zM3041982.67 269358.2v46182.4h-135197.84v359869.67h-56231.63V315540.6h-135486.93v-46182.4zM3177962.54 675410.27h-56529.31V269358.2h56529.31zM3250662.6 269358.2h45170.71c5041.62 0 9130.97 1224.14 12234.24 3681.24 3103.27 2457.09 5441.33 5568.77 6997.17 9343.63l117717.73 286489.62c2516.51 6419.01 4947.99 13407.57 7286.05 20965.7 2312.65 7558.33 4565.48 15396.93 6699.49 23516.42 1734.49-8119.48 3689.84-15958.09 5832.44-23516.42 2312.45-7558.13 4744.14-14546.69 7260.64-20965.7l117420.24-286489.62c1173.13-3205.3 3426.16-6138.33 6707.89-8782.47 3511.39-2831.2 7694.37-4242.39 12531.93-4242.39h45170.71l-170174.69 406052.07h-50680.06L3250662.6 269358.21zM3770623.73 675410.27h-56529.51V269358.2h56529.51zM4177245.56 269358.2v46182.4h-135197.65v359869.67h-56240.42V315540.6h-135478.33v-46182.4zM4413454.63 513618.54v161791.73h-56529.31V513618.54L4203967.07 269358.2h49532.34c5041.62 0 9020.54 1224.14 11945.16 3681.24 2899.22 2261.44 5415.72 5288.29 7558.13 9063.15l95578.9 157838.22c3511.19 6614.46 6588.85 12846.42 9309.42 18704.26 2924.82 5662.39 5449.93 11333.19 7583.73 16995.38 2134-5662.19 4565.68-11332.99 7286.25-16995.38 2720.57-5857.85 5832.24-12089.8 9335.03-18704.26l95264.21-157838.22c1759.9-3205.3 4191.38-6138.53 7294.65-8782.67 3103.27-2643.94 7082.19-3961.71 11945.16-3961.71h49821.42l-152966.85 244260.34z" class="fil2"/></g></g><path d="M0 944768.48h4566421.48V0H0z" style="fill:none"/><path d="M694808.73 1063257.02h-73056.76v199973.48h-30394.35v-199973.48h-73218.61v-25667.22h176669.72v25667.22zm53375.02 180291.54c10499.95 0 18789.29-2414.48 24876.6-7243.44 6087.51-4931.19 9131.17-11647.68 9131.17-20149.67 0-3783.26-569.76-7192.62-1725.89-10236.28-1156.33-3154.29-3043.66-5883.26-5670.8-8187.3-2627.14-2312.45-6146.93-4097.95-10550.97-5356.31-4301.81-1258.15-9607.1-1887.33-15907.08-1887.33h-34483.7v53060.33h34330.66zm-34330.66-120931.03v50076.09h30708.84c4616.7 0 8867.5-628.98 12752.99-1887.33 3987.32-1368.79 7396.68-3205.3 10236.28-5517.75 2831.2-2414.48 5033.22-5245.68 6614.46-8501.99 1572.84-3358.15 2363.47-7030.98 2363.47-11018.3 0-2941.83-526.95-5772.82-1581.24-8501.99-1045.69-2839.6-2831.2-5305.29-5347.7-7405.08-2525.11-2202.02-5832.24-3936.51-9921.79-5194.66-4097.95-1368.99-9130.97-2048.98-15116.45-2048.98h-30708.84zm31491.06-18891.32c9870.78 0 18321.76 994.68 25352.73 2992.64 7039.58 1989.56 12812.41 4718.53 17326.88 8187.3 4514.47 3358.35 7813.2 7345.67 9913.19 11962.17 2099.99 4625.1 3154.29 9556.29 3154.29 14801.97 0 3468.78-476.13 7090.6-1419.8 10865.46-943.67 3783.26-2618.54 7405.08-5041.62 10865.46-2304.05 3468.78-5509.35 6614.46-9598.7 9445.46-3987.32 2729.17-9028.94 4888.78-15116.45 6461.62 12174.83 2099.99 21569.47 6350.79 28183.93 12752.79 6614.46 6299.97 9921.79 14640.32 9921.79 25038.05 0 7762.38-1581.45 14538.29-4727.13 20311.12-3043.66 5670.8-7294.65 10440.34-12752.99 14325.83-5356.11 3885.29-11656.08 6775.91-18899.72 8663.44-7243.64 1887.33-15005.82 2831-23303.76 2831h-61409.28v-159504.29h58416.64zm165056.25-2525.11c11647.48 0 22147.43 1946.95 31491.06 5832.44 9343.63 3885.29 17318.27 9394.44 23932.74 16527.65 6614.66 7141.61 11656.28 15805.05 15116.45 25981.91 3570.8 10083.24 5356.31 21365.21 5356.31 33854.53 0 12599.75-1785.5 23932.94-5356.31 34016.17-3460.17 10074.84-8501.79 18687.26-15116.45 25820.27-6614.46 7141.61-14589.11 12650.76-23932.74 16536.25-9343.63 3774.86-19843.58 5670.8-31491.06 5670.8-11758.31 0-22360.09-1895.93-31814.15-5670.8-9335.23-3885.49-17318.47-9394.64-23932.94-16536.25-6614.46-7133.01-11698.69-15745.43-15269.5-25820.27-3468.78-10083.24-5194.66-21416.43-5194.66-34016.17 0-12489.31 1725.89-23771.29 5194.66-33854.53 3570.8-10176.86 8655.04-18840.3 15269.5-25981.91 6614.46-7133.21 14597.71-12642.36 23932.94-16527.65 9454.06-3885.49 20055.84-5832.44 31814.15-5832.44zm0 142347.46c15745.43 0 27503.54-5245.68 35265.92-15745.43 7770.59-10601.98 11656.08-25352.73 11656.08-44244.05 0-19001.75-3885.49-33803.51-11656.08-44405.5-7762.38-10601.78-19520.49-15907.08-35265.92-15907.08-7983.45 0-14963.41 1368.99-20948.7 4097.95-5874.85 2729.17-10806.04 6665.48-14801.97 11809.12-3876.89 5143.85-6818.52 11494.63-8816.48 19052.96-1887.33 7456.1-2831 15907.08-2831 25352.53 0 18891.32 3885.29 33642.07 11647.48 44244.05 7872.82 10499.75 19792.57 15745.43 35750.66 15745.43zm248281.27-139822.35v159504.29h-28030.89v-108331.29c0-2099.99 110.63-4353.03 314.69-6767.5 212.46-2414.48 476.13-4829.16 790.62-7243.64-943.67 2099.99-1895.93 4038.34-2839.6 5823.84-943.67 1785.3-1938.55 3409.16-2992.64 4879.97l-76993.47 104709.67c-1156.13 1683.27-2626.94 3307.13-4412.44 4888.58-1674.87 1462.41-3570.8 2202.02-5670.8 2202.02h-17003.79v-159512.89h28183.93v108339.89c0 1989.36-102.03 4191.38-314.69 6605.86-204.06 2312.65-467.53 4676.12-782.22 7090.6 943.87-1997.76 1887.53-3834.28 2831.2-5509.15 943.67-1785.3 1887.53-3417.76 2839.6-4880.17l76993.47-104718.07c1156.13-1674.87 2626.94-3256.12 4412.44-4718.53 1785.3-1581.24 3723.85-2363.47 5823.84-2363.47h16850.74zm-66612.55-38581.66c4310.61 0 7932.43-467.73 10865.46-1419.8 2941.63-1045.69 5305.29-2669.55 7090.6-4880.17 1887.53-2202.02 3256.32-5033.02 4089.55-8501.79 841.64-3460.37 1266.76-7711.37 1266.76-12752.99h16374.61c1989.56 0 3511.39 892.65 4565.48 2678.15 1045.89 1785.3 1572.84 3723.85 1572.84 5823.84 0 5245.68-1054.1 9972.61-3145.69 14172.59-2099.99 4199.98-5143.65 7821.8-9139.57 10865.46-3885.29 2941.63-8654.84 5194.66-14325.63 6767.5-5670.8 1581.45-12072.8 2363.67-19214.41 2363.67-7133.01 0-13535.01-782.22-19205.8-2363.67-5670.8-1572.84-10499.75-3825.88-14487.28-6767.5-3885.29-3043.66-6877.94-6665.48-8977.93-10865.46-2099.99-4199.98-3145.69-8926.91-3145.69-14172.59 0-2099.99 527.15-4038.54 1572.84-5823.84 1054.3-1785.5 2576.12-2678.15 4565.48-2678.15h16374.61c0 5041.62 425.12 9292.62 1266.96 12752.99 833.03 3468.78 2150.81 6299.77 3936.31 8501.79 1887.33 2210.62 4302.01 3834.48 7243.64 4880.17 2933.23 952.07 6555.04 1419.8 10856.86 1419.8zm302506.53 66918.43c-841.64 1156.33-1683.27 2048.98-2516.51 2678.15-841.64 629.18-1997.96 943.67-3468.78 943.67-1572.84 0-3307.13-628.98-5194.66-1887.33-1887.33-1360.38-4251-2831.2-7081.99-4404.04-2737.77-1581.24-6146.93-2992.64-10236.48-4251-3995.72-1368.79-8926.91-2048.98-14801.77-2048.98-7872.82 0-14801.77 1411.4-20787.25 4251-5985.28 2729.17-11018.3 6716.49-15116.25 11962.17-3987.52 5254.28-7031.18 11605.27-9131.17 19052.96-1997.96 7456.1-2992.64 15805.05-2992.64 25038.05 0 9658.12 1105.31 18270.54 3307.33 25828.87 2202.02 7447.7 5296.69 13747.47 9292.62 18891.12 4089.35 5041.62 8969.52 8927.11 14640.12 11656.28 5772.82 2618.54 12225.84 3936.31 19367.45 3936.31 6827.12 0 12438.3-790.62 16850.74-2363.47 4412.64-1683.47 8025.86-3519.79 10865.46-5509.35 2933.23-1997.96 5356.31-3783.26 7243.64-5356.11 1989.56-1683.47 3936.51-2516.71 5823.84-2516.71 2312.45 0 4097.95 892.85 5356.11 2678.15l7872.82 10227.88c-3468.78 4310.41-7405.08 7983.25-11809.12 11026.9-4412.44 3043.66-9190.59 5611.38-14334.23 7711.17-5033.02 1997.96-10338.31 3468.78-15898.47 4412.64-5568.77 943.67-11239.56 1419.8-17003.99 1419.8-9981.21 0-19265.22-1844.92-27877.65-5517.75-8501.99-3672.83-15898.67-8969.52-22198.45-15898.67-6299.97-7030.98-11231.16-15643.4-14801.97-25828.67-3570.8-10176.86-5356.11-21781.93-5356.11-34798.39 0-11860.14 1632.26-22827.62 4879.97-32910.86 3358.35-10074.84 8187.5-18738.27 14487.28-25981.91 6402-7345.67 14223.8-13067.48 23465.4-17156.83 9343.63-4097.95 20047.44-6146.93 32120.24-6146.93 11230.96 0 21101.74 1836.52 29603.53 5517.75 8604.02 3562.4 16221.77 8655.04 22836.23 15269.5l-7405.28 10074.64zm172274.28 131167.51h-28183.73v-138088.06h-76525.74v138088.06h-28183.93V1103726.2h132893.4v159504.29zm111791.66-162029.4c11656.08 0 22156.04 1946.95 31491.06 5832.44 9343.63 3885.29 17326.88 9394.44 23941.54 16527.65 6605.86 7141.61 11647.48 15805.05 15116.25 25981.91 3562.4 10083.24 5347.7 21365.21 5347.7 33854.53 0 12599.75-1785.3 23932.94-5347.7 34016.17-3468.78 10074.84-8510.39 18687.26-15116.25 25820.27-6614.66 7141.61-14597.91 12650.76-23941.54 16536.25-9335.03 3774.86-19834.98 5670.8-31491.06 5670.8-11758.11 0-22360.09-1895.93-31805.55-5670.8-9343.63-3885.49-17318.47-9394.64-23932.94-16536.25-6614.46-7133.01-11707.09-15745.43-15277.9-25820.27-3460.37-10083.24-5194.66-21416.43-5194.66-34016.17 0-12489.31 1734.29-23771.29 5194.66-33854.53 3570.8-10176.86 8663.44-18840.3 15277.9-25981.91 6614.46-7133.21 14589.31-12642.36 23932.94-16527.65 9445.46-3885.49 20047.44-5832.44 31805.55-5832.44zm0 142347.46c15745.63 0 27503.74-5245.68 35274.53-15745.43 7762.18-10601.98 11647.48-25352.73 11647.48-44244.05 0-19001.75-3885.29-33803.51-11647.48-44405.5-7770.79-10601.78-19528.9-15907.08-35274.53-15907.08-7974.84 0-14954.81 1368.99-20940.09 4097.95-5874.85 2729.17-10814.44 6665.48-14801.97 11809.12-3885.29 5143.85-6818.52 11494.63-8816.48 19052.96-1887.33 7456.1-2839.6 15907.08-2839.6 25352.53 0 18891.32 3885.29 33642.07 11656.08 44244.05 7872.82 10499.75 19792.57 15745.43 35742.06 15745.43zm139635.5-18738.07c5143.65 6928.95 10754.83 11809.12 16850.74 14648.72 6087.31 2831.2 12905.83 4251 20464.16 4251 14912.2 0 26347.41-5305.29 34330.66-15907.08 7974.84-10601.98 11970.77-25718.24 11970.77-45349.16 0-10389.32-952.27-19316.44-2839.8-26764.13-1785.3-7456.1-4403.84-13543.41-7872.62-18270.54-3460.37-4829.16-7711.37-8340.35-12752.99-10550.97-5041.62-2201.82-10763.43-3307.13-17165.23-3307.13-9131.17 0-17165.43 2099.99-24094.58 6299.97-6818.52 4199.78-13118.29 10134.25-18891.12 17794.41v77154.91zm-1419.8-96369.32c6716.49-8289.33 14487.28-14954.81 23303.76-19996.43 8824.88-5033.02 18899.72-7558.13 30232.71-7558.13 9241.6 0 17581.95 1785.3 25038.05 5356.11 7456.3 3468.78 13807.29 8663.44 19052.96 15592.59 5245.68 6818.52 9292.42 15320.51 12123.61 25505.78 2839.6 10185.27 4251 21883.76 4251 35112.88 0 11758.11-1572.84 22725.6-4718.53 32910.86-3154.29 10074.84-7719.77 18840.3-13705.06 26296.4-5874.85 7345.67-13118.49 13177.91-21722.51 17479.92-8510.39 4199.98-18109.1 6299.97-28821.51 6299.97-9760.15 0-18159.91-1632.46-25191.09-4888.58-6929.15-3358.35-13067.48-7974.84-18423.58-13849.7v70540.45h-28183.93v-213517.09h16842.34c3995.92 0 6461.42 1938.35 7405.08 5823.84l2516.71 18891.12zm277731.96-3298.73h-61256.24v138088.06h-28022.49v-138088.06h-61256.24v-21416.23h150534.96v21416.23zm163559.83-21416.23v159504.29h-28030.89V1154899.2c0-2099.99 110.43-4353.03 323.09-6767.5 204.06-2414.48 467.53-4829.16 782.22-7243.64-943.87 2099.99-1887.53 4038.34-2831.2 5823.84-943.67 1785.3-1946.95 3409.16-2992.64 4879.97l-77001.87 104709.67c-1156.33 1683.27-2627.14 3307.13-4404.04 4888.58-1683.27 1462.41-3570.8 2202.02-5670.8 2202.02h-17003.79v-159512.89h28183.93v108339.89c0 1989.36-110.63 4191.38-314.69 6605.86-212.46 2312.65-476.13 4676.12-790.62 7090.6 943.67-1997.76 1887.33-3834.28 2839.6-5509.15 943.67-1785.3 1887.53-3417.76 2831.2-4880.17l77001.87-104718.07c1147.72-1674.87 2618.54-3256.12 4403.84-4718.53 1785.5-1581.24 3723.85-2363.47 5823.84-2363.47h16850.94zm105559.71 139822.35c10499.75 0 18789.09-2414.48 24885-7243.44 6087.31-4931.19 9131.17-11647.68 9131.17-20149.67 0-3783.26-578.16-7192.62-1734.49-10236.28-1156.33-3154.29-3043.66-5883.26-5670.8-8187.3-2618.54-2312.45-6138.33-4097.95-10550.77-5356.31-4302.01-1258.15-9598.7-1887.33-15898.67-1887.33h-34483.7v53060.33h34322.26zm-34322.26-120931.03v50076.09h30700.44c4616.5 0 8875.9-628.98 12752.79-1887.33 3995.92-1368.79 7405.28-3205.3 10236.28-5517.75 2839.6-2414.48 5041.62-5245.68 6614.46-8501.99 1572.84-3358.15 2363.67-7030.98 2363.67-11018.3 0-2941.83-527.15-5772.82-1572.84-8501.99-1054.3-2839.6-2839.8-5305.29-5356.31-7405.08-2516.51-2202.02-5823.84-3936.51-9921.79-5194.66-4089.35-1368.99-9130.97-2048.98-15116.25-2048.98h-30700.44zm31491.06-18891.32c9870.78 0 18313.15 994.68 25352.73 2992.64 7030.98 1989.56 12803.8 4718.53 17318.27 8187.3 4514.67 3358.35 7821.8 7345.67 9921.79 11962.17 2099.99 4625.1 3145.69 9556.29 3145.69 14801.97 0 3468.78-467.53 7090.6-1411.2 10865.46-952.27 3783.26-2627.14 7405.08-5041.62 10865.46-2312.65 3468.78-5509.35 6614.46-9607.3 9445.46-3987.32 2729.17-9028.94 4888.78-15116.25 6461.62 12174.63 2099.99 21577.67 6350.79 28183.73 12752.79 6614.46 6299.97 9921.79 14640.32 9921.79 25038.05 0 7762.38-1572.84 14538.29-4718.53 20311.12-3043.66 5670.8-7294.65 10440.34-12761.39 14325.83-5347.7 3885.29-11647.68 6775.91-18891.32 8663.44-7243.64 1887.33-15014.43 2831-23303.76 2831h-61409.28v-159504.29h58416.64zm230707.93 0v159504.29h-28183.93v-74638.2h-76525.74v74638.2h-28183.73V1103726.2h28183.73v63611.3h76525.74v-63611.3h28183.93zm105814.78 139040.33c5662.19 0 10542.37-688.79 14640.32-2048.98 4199.98-1470.81 7660.16-3468.78 10389.32-5985.48 2729.17-2626.94 4778.14-5670.6 6146.93-9130.97 1360.18-3468.78 2040.37-7243.64 2040.37-11341.59 0-3774.86-578.16-7294.65-1725.89-10550.77-1156.33-3358.35-3103.27-6291.37-5832.24-8816.48-2618.74-2516.71-6087.51-4514.67-10389.32-5985.48-4302.01-1462.21-9556.29-2201.82-15745.63-2201.82h-34007.57v56061.58h34483.7zm-476.13-76534.34c11018.5 0 20260.1 1317.77 27716.2 3944.91 7558.33 2618.54 13594.63 6138.33 18109.1 10542.37 4616.5 4412.44 7923.83 9505.27 9913.19 15277.9 1997.96 5772.82 2992.84 11758.31 2992.84 17947.65 0 7141.61-1258.35 13756.07-3774.86 19843.38-2525.11 5985.48-6248.96 11180.15-11180.15 15592.59-4939.59 4302.01-11026.9 7711.17-18270.54 10227.68-7243.64 2414.68-15583.99 3621.82-25029.64 3621.82h-61256.24V1103726.2h26772.53v62505.99h34007.57zm121874.9-62505.99v159504.29h-28030.69V1103726.2h28030.69zm181464.87 0v159504.29h-28030.89V1154899.2c0-2099.99 85.02-4353.03 314.69-6767.5 204.06-2414.48 467.53-4829.16 782.22-7243.64-943.87 2099.99-1887.53 4038.34-2831.2 5823.84-943.67 1785.3-1955.55 3409.16-2992.64 4879.97l-76993.47 104709.67c-1173.13 1683.27-2635.54 3307.13-4412.44 4888.58-1683.27 1462.41-3579.21 2202.02-5670.8 2202.02h-17003.79v-159512.89h28183.93v108339.89c0 1989.36-110.63 4191.38-314.69 6605.86-221.06 2312.65-467.53 4676.12-782.22 7090.6 943.87-1997.76 1887.53-3834.28 2831.2-5509.15 943.67-1785.3 1887.53-3417.76 2831.2-4880.17l77001.87-104718.07c1147.72-1674.87 2609.93-3256.12 4412.44-4718.53 1776.9-1581.24 3706.84-2363.47 5823.84-2363.47h16850.74zm-66612.55-38581.66c4302.01 0 7923.83-467.73 10865.46-1419.8 2924.62-1045.69 5288.29-2669.55 7090.6-4880.17 1887.53-2202.02 3239.31-5033.02 4089.55-8501.79 833.03-3460.37 1258.15-7711.37 1258.15-12752.99h16374.81c1980.96 0 3511.19 892.65 4573.89 2678.15 1028.69 1785.3 1572.84 3723.85 1572.84 5823.84 0 5245.68-1062.7 9972.61-3154.09 14172.59-2108.59 4199.98-5152.25 7821.8-9131.17 10865.46-3893.9 2941.63-8654.84 5194.66-14325.63 6767.5-5670.8 1581.45-12081.2 2363.67-19214.41 2363.67-7150.01 0-13543.41-782.22-19205.8-2363.67-5670.8-1572.84-10508.36-3825.88-14487.28-6767.5-3893.9-3043.66-6886.54-6665.48-8977.93-10865.46-2117-4199.98-3145.69-8926.91-3145.69-14172.59 0-2099.99 518.55-4038.54 1572.84-5823.84 1037.09-1785.5 2567.52-2678.15 4565.48-2678.15h16374.61c0 5041.62 408.11 9292.62 1258.35 12752.99 833.23 3468.78 2142.4 6299.77 3936.31 8501.79 1895.93 2210.62 4302.01 3834.48 7243.64 4880.17 2924.82 952.07 6546.44 1419.8 10865.46 1419.8zm301384.42 177621.99v-116994.92h-50544.02c-1037.09 16374.81-2516.51 30862.09-4412.44 43453.23-1887.33 12599.95-4089.35 23677.86-6614.46 33225.55-2406.08 9454.06-5126.64 17479.92-8187.3 24094.38-2924.62 6614.46-6027.9 12021.78-9284.21 16221.77h79042.44zm56376.07-790.82v67547.81c0 2729.17-790.62 4837.56-2363.47 6299.97-1462.41 1581.24-3400.76 2363.47-5832.24 2363.47h-17157.03v-54956.47h-134160.16v46930.61c0 1989.56-629.18 3825.88-1887.33 5509.35-1147.72 1674.87-3086.27 2516.51-5832.44 2516.51h-17632.96v-75420.42h5194.66c3689.84 0 7311.66-629.18 10865.46-1895.93 3689.84-1258.35 7201.23-3621.82 10550.97-7082.19 3375.15-3570.8 6521.04-8552.81 9445.66-14963.41 3060.66-6401.8 5781.23-14742.15 8187.3-25029.44 2431.48-10287.5 4523.07-22785.21 6299.97-37476.55 1802.31-14801.77 3222.11-32332.7 4250.8-52592.8h100934.81v138249.51h29136zm161306.79-138249.51v159504.29h-28183.73v-74638.2h-76534.34v74638.2h-28183.73V1103726.2h28183.73v63611.3h76534.34v-63611.3h28183.73zm151299.98 62352.95c0-6512.43-943.67-12438.3-2839.6-17794.41-1776.9-5458.34-4454.85-10125.85-8025.66-14011.14-3468.78-3987.52-7719.77-7039.58-12752.99-9131.17-5041.62-2210.42-10754.83-3307.13-17165.43-3307.13-13432.98 0-24094.38 3936.31-31967 11809.12-7762.38 7762.18-12599.95 18576.63-14487.28 32434.73h87237.95zm22674.78 74791.45c-3468.78 4199.98-7609.34 7872.82-12438.3 11026.9-4820.76 3043.66-10015.42 5560.36-15592.59 7558.13-5441.13 1997.96-11111.93 3460.37-17003.79 4404.04-5874.85 1054.3-11698.69 1581.45-17479.92 1581.45-11027.1 0-21186.76-1844.92-30547.4-5517.75-9224.6-3774.86-17250.45-9233.2-24094.38-16374.81-6699.49-7243.44-11962.17-16161.95-15745.63-26763.93-3774.86-10601.78-5670.8-22785.21-5670.8-36532.68 0-11129.13 1691.88-21518.46 5041.62-31176.57 3468.78-9658.12 8416.97-18007.07 14801.97-25038.05 6410.4-7141.61 14240.61-12701.97 23465.2-16689.3 9241.6-4097.95 19630.92-6146.93 31176.57-6146.93 9556.09 0 18372.57 1632.46 26449.44 4888.58 8187.3 3145.69 15226.89 7762.38 21101.74 13849.7 5985.28 5985.28 10661.4 13441.58 14011.14 22360.09 3375.15 8816.48 5041.62 18899.72 5041.62 30232.71 0 4412.44-476.13 7354.07-1419.8 8825.08-943.67 1462.21-2720.57 2201.82-5347.7 2201.82h-106605.6c314.69 10074.84 1683.47 18840.3 4097.95 26296.4 2516.71 7447.7 5976.88 13696.65 10389.32 18738.27 4412.64 4931.19 9675.32 8655.04 15745.63 11180.15 6095.92 2414.48 12914.43 3621.82 20472.56 3621.82 7039.58 0 13067.48-790.82 18109.1-2363.67 5152.05-1683.27 9556.09-3468.78 13220.52-5356.11 3689.84-1887.53 6733.49-3621.82 9139.57-5194.66 2516.51-1683.47 4675.92-2516.71 6452.82-2516.71 2312.65 0 4097.95 892.85 5356.31 2678.15l7872.82 10227.88zm98205.44 2677.95c10508.36 0 18789.29-2414.48 24885.2-7243.44 6095.92-4931.19 9130.97-11647.68 9130.97-20149.67 0-3783.26-586.57-7192.62-1734.29-10236.28-1147.72-3154.29-3035.25-5883.26-5670.8-8187.3-2627.14-2312.45-6138.33-4097.95-10542.37-5356.31-4302.01-1258.15-9607.1-1887.33-15907.08-1887.33h-34483.7v53060.33h34322.06zm-34322.06-120931.03v50076.09h30700.24c4616.7 0 8867.5-628.98 12761.39-1887.33 3978.92-1368.79 7396.68-3205.3 10227.88-5517.75 2839.6-2414.48 5041.62-5245.68 6614.46-8501.99 1581.45-3358.15 2363.47-7030.98 2363.47-11018.3 0-2941.83-518.55-5772.82-1572.84-8501.99-1054.1-2839.6-2831-5305.29-5356.11-7405.08-2516.71-2202.02-5823.84-3936.51-9921.79-5194.66-4089.35-1368.99-9130.97-2048.98-15116.45-2048.98h-30700.24zm31491.06-18891.32c9879.18 0 18312.95 994.68 25352.53 2992.64 7039.58 1989.56 12795.4 4718.53 17318.47 8187.3 4523.07 3358.35 7830.2 7345.67 9921.79 11962.17 2091.39 4625.1 3145.69 9556.29 3145.69 14801.97 0 3468.78-467.53 7090.6-1411.4 10865.46-943.67 3783.26-2635.54 7405.08-5041.62 10865.46-2312.45 3468.78-5509.15 6614.46-9607.1 9445.46-3978.92 2729.17-9020.54 4888.78-15116.45 6461.62 12174.83 2099.99 21577.87 6350.79 28192.33 12752.79 6606.06 6299.97 9913.19 14640.32 9913.19 25038.05 0 7762.38-1572.84 14538.29-4718.53 20311.12-3035.05 5670.8-7294.65 10440.34-12752.79 14325.83-5356.31 3885.29-11656.08 6775.91-18899.72 8663.44-7243.64 1887.33-15006.02 2831-23303.76 2831h-61409.28v-159504.29h58416.64zm230707.73 0v159504.29h-28192.33v-74638.2h-76525.54v74638.2h-28183.93V1103726.2h28183.93v63611.3h76525.54v-63611.3h28192.33zm181396.85 0v159504.29h-28030.69V1154899.2c0-2099.99 110.43-4353.03 314.49-6767.5 204.06-2414.48 476.13-4829.16 790.62-7243.64-943.67 2099.99-1895.93 4038.34-2839.6 5823.84-943.67 1785.3-1929.94 3409.16-2992.64 4879.97l-76993.27 104709.67c-1147.72 1683.27-2635.74 3307.13-4412.64 4888.58-1683.27 1462.41-3579.21 2202.02-5670.6 2202.02h-17003.99v-159512.89h28183.93v108339.89c0 1989.36-110.63 4191.38-314.49 6605.86-204.06 2312.65-467.73 4676.12-782.22 7090.6 943.67-1997.76 1887.33-3834.28 2831-5509.15 943.87-1785.3 1887.53-3417.76 2831.2-4880.17l77001.87-104718.07c1147.72-1674.87 2635.54-3256.12 4412.44-4718.53 1776.9-1581.24 3732.45-2363.47 5823.84-2363.47h16850.74zm141148.72 7872.82c1462.41-2312.65 3400.76-4199.98 5832.44-5670.8 2406.08-1470.81 4965-2202.02 7711.17-2202.02h21892.36l-41412.65 60780.1c-2525.11 3885.49-5152.25 7082.19-7881.42 9607.3-2737.57 2414.48-6095.72 4301.81-10074.64 5662.19 5041.62 1368.79 9292.62 3519.79 12752.79 6461.42 3468.78 2831.2 6546.44 6504.03 9292.62 11018.5l41888.99 65974.77h-19528.9c-5041.62 0-8927.11-833.03-11656.28-2516.51-2737.57-1683.27-5101.04-4097.95-7081.99-7243.64l-31023.53-49600.16c-4947.99-8187.3-12344.67-12285.26-22198.45-12285.26h-17165.43v71807.21h-28183.73v-159665.93h28183.73v68967.41h15116.45c8391.36 0 14963.41-3570.8 19681.94-10712.21l33854.53-50382.38z" style="fill:#9a84b3;fill-rule:nonzero"/></g></g></svg>